<?xml version="1.0" standalone="no"?>
<!DOCTYPE svg PUBLIC "-//W3C//DTD SVG 20010904//EN"
 "http://www.w3.org/TR/2001/REC-SVG-20010904/DTD/svg10.dtd">
<svg version="1.0" xmlns="http://www.w3.org/2000/svg"
 width="640.000000pt" height="640.000000pt" viewBox="0 0 640.000000 640.000000"
 preserveAspectRatio="xMidYMid meet">

<g transform="translate(0.000000,640.000000) scale(0.100000,-0.100000)"
fill="#000000" stroke="none">
<path d="M1756 5807 c-40 -63 -180 -343 -230 -459 -37 -89 -58 -145 -112 -302
-18 -54 -43 -110 -55 -122 -28 -30 -71 -31 -110 -3 -24 17 -29 27 -29 62 0 23
7 61 15 84 8 23 22 81 30 130 9 48 22 109 30 134 8 26 15 57 15 70 l0 22 -24
-22 c-35 -33 -72 -107 -91 -181 -9 -36 -26 -89 -37 -118 -21 -50 -23 -52 -39
-35 -31 34 -62 178 -67 315 -3 94 -8 131 -19 139 -24 21 -33 -2 -49 -127 -28
-207 -10 -376 53 -498 17 -32 18 -47 10 -114 -10 -94 -3 -166 22 -225 34 -80
127 -166 238 -222 58 -29 58 -29 68 -175 8 -108 35 -220 73 -298 33 -69 146
-192 239 -263 40 -30 119 -82 176 -114 56 -33 131 -84 166 -113 35 -30 83 -67
107 -82 48 -30 214 -184 214 -198 0 -5 -12 -19 -26 -33 -118 -110 -219 -345
-245 -574 -37 -315 84 -795 325 -1287 90 -185 82 -178 195 -178 87 0 192 -34
330 -108 121 -64 132 -73 274 -214 l147 -148 132 135 c138 143 189 180 356
264 115 58 197 81 292 81 99 0 106 7 166 147 194 451 337 1055 320 1353 -7
127 -16 168 -62 286 -37 98 -72 156 -133 226 l-39 43 86 80 c47 44 112 97 146
119 34 21 86 59 116 85 30 26 96 69 145 95 203 109 382 262 447 382 40 73 67
184 74 303 4 58 11 116 15 128 5 13 31 33 62 48 81 40 182 120 216 172 44 66
53 110 50 242 -2 101 0 121 18 156 48 92 58 150 56 325 -1 165 -18 290 -39
297 -7 2 -19 -3 -28 -12 -13 -13 -16 -39 -16 -129 0 -149 -43 -326 -79 -326
-12 0 -46 83 -65 157 -19 76 -44 126 -86 173 l-31 35 4 -35 c7 -54 36 -187 59
-270 32 -119 37 -168 19 -184 -49 -42 -101 -47 -136 -12 -13 13 -35 59 -48
102 -14 44 -37 104 -51 134 -14 30 -26 61 -26 69 0 14 -69 177 -97 226 -9 17
-43 84 -76 150 -32 66 -79 150 -103 187 -38 59 -48 68 -74 68 -28 0 -29 -1
-19 -27 6 -16 40 -102 76 -193 115 -288 151 -409 198 -663 34 -189 33 -223
-19 -417 -78 -292 -107 -354 -311 -665 -50 -77 -115 -169 -143 -204 -49 -61
-232 -235 -239 -227 -2 1 4 31 13 65 16 65 12 165 -8 159 -5 -2 -18 -26 -27
-53 -10 -28 -30 -75 -46 -105 -34 -68 -163 -237 -202 -266 l-29 -22 -85 42
c-46 22 -128 56 -182 75 -89 30 -98 36 -93 55 3 12 18 84 33 161 27 135 28
151 26 420 -1 154 -5 299 -8 323 -5 37 -8 41 -24 32 -24 -13 -40 -78 -51 -213
-33 -406 -93 -735 -129 -713 -16 10 -263 36 -344 36 -63 0 -209 -12 -286 -23
-16 -2 -36 50 -57 148 -19 95 -74 538 -74 602 0 72 -18 148 -39 167 -17 16
-19 15 -24 -6 -3 -13 -9 -147 -13 -298 -6 -238 -4 -288 10 -370 24 -130 44
-231 51 -255 5 -18 -5 -24 -82 -50 -48 -16 -129 -50 -180 -76 l-92 -46 -44 46
c-100 104 -175 224 -217 345 -9 28 -21 51 -27 53 -19 7 -24 -86 -8 -155 9 -36
13 -67 11 -70 -3 -2 -54 45 -113 104 -120 120 -189 217 -351 489 -109 184
-148 283 -212 542 -37 150 -37 205 -5 393 41 238 84 383 208 703 l65 167 -29
0 c-24 0 -35 -9 -63 -53z m1781 -2422 c65 -9 122 -20 126 -24 4 -4 4 -19 -2
-32 -5 -13 -18 -47 -30 -75 -11 -27 -22 -61 -25 -75 -2 -13 -9 -48 -15 -77
-17 -84 -41 -159 -55 -171 -17 -14 -135 -52 -166 -53 -27 -1 -189 47 -202 60
-10 10 -42 125 -58 207 -6 33 -24 97 -41 143 -33 94 -37 87 66 100 111 15 274
13 402 -3z m-598 -127 c12 -46 23 -108 24 -138 l2 -55 -39 3 c-22 2 -67 13
-100 24 -84 28 -237 108 -230 119 15 25 259 128 304 129 11 0 23 -25 39 -82z
m983 38 c52 -18 123 -48 158 -66 l63 -32 -54 -30 c-97 -53 -276 -118 -326
-118 -24 0 -12 116 27 243 6 20 17 37 25 37 8 0 56 -15 107 -34z m-1454 -280
c38 -25 149 -85 249 -135 99 -50 197 -106 219 -125 l38 -33 -28 -38 c-28 -36
-30 -37 -82 -33 -36 3 -59 11 -71 24 -30 33 -96 80 -148 107 -55 27 -157 50
-307 68 -54 6 -98 13 -98 16 0 18 136 193 150 193 5 0 40 -20 78 -44z m1925
-16 c45 -50 102 -138 95 -145 -2 -3 -59 -11 -126 -19 -205 -26 -301 -59 -392
-135 -61 -51 -82 -61 -128 -61 -33 0 -45 6 -72 37 l-32 37 33 28 c19 16 104
63 189 104 201 98 243 120 315 165 33 20 63 38 67 38 3 1 26 -22 51 -49z
m-2158 -277 c21 -32 65 -101 98 -153 97 -156 151 -200 249 -200 34 0 64 -7 83
-18 17 -10 42 -22 56 -25 17 -4 29 -16 33 -31 3 -14 26 -37 56 -56 88 -56 90
-82 16 -176 -109 -141 -179 -259 -235 -402 -12 -29 -32 -75 -47 -103 -16 -33
-23 -60 -20 -75 4 -15 -4 -43 -25 -83 l-31 -60 23 -48 c23 -47 110 -144 159
-175 44 -28 240 -50 510 -56 417 -10 623 -7 760 12 113 15 130 20 177 52 66
45 117 102 146 160 l22 45 -33 62 c-20 38 -30 70 -27 82 8 26 -126 319 -188
412 -25 37 -75 106 -111 152 -88 112 -87 129 5 192 33 22 59 47 59 57 0 24 98
63 180 72 36 3 77 12 92 18 45 19 95 78 195 230 l96 146 13 -45 c36 -120 38
-261 8 -467 -38 -266 -149 -688 -229 -877 -7 -16 -25 -61 -39 -98 -15 -38 -38
-95 -53 -128 l-26 -59 -62 0 c-99 0 -207 -33 -355 -107 -169 -85 -277 -171
-408 -326 l-31 -37 -43 47 c-73 84 -191 193 -246 230 -30 19 -109 63 -175 97
-128 65 -205 88 -312 91 l-60 2 -62 124 c-125 249 -205 457 -263 684 -67 261
-89 497 -61 655 10 56 61 240 66 240 1 0 19 -26 40 -57z m785 -982 c19 -5 27
-16 34 -51 l9 -45 10 46 9 47 55 7 c31 4 59 3 64 -2 6 -6 8 -59 7 -119 l-3
-109 -37 -3 -37 -3 -3 48 -4 48 -8 -43 c-7 -32 -14 -44 -32 -48 -43 -11 -58
-1 -71 46 l-11 45 -1 -42 -1 -43 -40 0 -40 0 0 115 0 115 38 -1 c20 -1 48 -4
62 -8z m430 -84 c0 -80 -3 -96 -20 -115 -26 -27 -60 -36 -112 -29 -68 9 -82
33 -86 137 l-4 90 51 0 51 0 0 -80 c0 -47 4 -80 10 -80 6 0 10 33 10 78 0 43
3 82 7 85 3 4 26 7 50 7 l43 0 0 -93z m213 65 c18 -16 22 -48 8 -71 -6 -9 -4
-22 5 -36 10 -16 12 -29 5 -47 -15 -41 -35 -49 -123 -51 l-83 -2 -3 112 -3
112 63 3 c78 4 108 0 131 -20z m255 -64 c3 -79 1 -88 -22 -115 -22 -25 -31
-28 -86 -28 -55 0 -64 3 -86 28 -21 25 -24 38 -24 113 l0 84 50 0 50 0 0 -81
c0 -51 4 -78 10 -74 6 3 10 42 10 86 l0 80 48 -3 47 -3 3 -87z m-210 -280 c4
-51 32 -53 32 -3 0 35 0 35 45 35 l45 0 0 -110 0 -110 -45 0 -45 0 0 40 c0 29
-4 40 -15 40 -11 0 -15 -11 -15 -40 l0 -40 -45 0 -45 0 0 116 0 115 43 -3 c41
-3 42 -4 45 -40z m-518 2 c0 -25 -4 -30 -25 -30 -25 0 -25 -1 -25 -80 l0 -80
-50 0 -50 0 0 80 c0 79 0 80 -25 80 -21 0 -25 5 -25 30 l0 30 100 0 100 0 0
-30z m190 0 c0 -29 -2 -30 -45 -30 -25 0 -45 -4 -45 -10 0 -5 18 -10 40 -10
38 0 40 -2 40 -30 0 -28 -2 -30 -40 -30 -22 0 -40 -4 -40 -10 0 -5 20 -10 45
-10 43 0 45 -1 45 -30 l0 -30 -90 0 -90 0 0 110 0 110 90 0 90 0 0 -30z m194
9 c39 -31 33 -73 -11 -77 -22 -2 -35 3 -46 18 -12 18 -16 18 -26 6 -15 -18
-10 -88 7 -94 6 -2 12 3 12 12 0 12 11 16 45 16 46 0 53 -8 39 -45 -17 -44
-122 -60 -167 -24 -33 25 -51 87 -39 131 18 70 127 103 186 57z"/>
<path d="M3560 1669 c0 -24 23 -21 28 4 2 10 -3 17 -12 17 -10 0 -16 -9 -16
-21z"/>
<path d="M3567 1604 c-14 -14 -7 -35 11 -32 9 2 17 10 17 17 0 16 -18 25 -28
15z"/>
</g>
</svg>
